<?xml version="1.0" encoding="UTF-8"?>
<svg xmlns="http://www.w3.org/2000/svg" xmlns:xlink="http://www.w3.org/1999/xlink" width="42px" height="46px" viewBox="0 0 42 46" version="1.1">
<g id="surface1">
<path style=" stroke:none;fill-rule:evenodd;fill:rgb(0%,0%,0%);fill-opacity:1;" d="M 28.933594 22.160156 L 39.414062 22.160156 C 40.835938 22.160156 42 23.308594 42 24.714844 L 42 35.183594 C 42 36.589844 40.835938 37.738281 39.414062 37.738281 L 28.933594 37.738281 C 24.601562 37.738281 21.054688 34.234375 21.054688 29.949219 C 21.058594 25.664062 24.597656 22.160156 28.933594 22.160156 Z M 17.050781 7.574219 L 18.765625 9.175781 L 22.480469 5.453125 C 22.808594 5.125 23.015625 4.863281 23.417969 5.269531 L 24.726562 6.59375 C 25.15625 7.011719 25.132812 7.257812 24.730469 7.652344 L 19.515625 12.511719 C 18.660156 13.34375 18.808594 13.390625 17.941406 12.542969 L 14.851562 9.710938 C 14.671875 9.515625 14.691406 9.320312 14.890625 9.125 L 16.410156 7.570312 C 16.632812 7.332031 16.8125 7.347656 17.050781 7.574219 Z M 4.148438 9.859375 L 10.835938 9.859375 C 10.824219 9.671875 10.816406 9.484375 10.816406 9.292969 C 10.820312 4.191406 15.003906 0.0546875 20.167969 0.0546875 C 25.328125 0.0546875 29.515625 4.191406 29.515625 9.292969 C 29.515625 9.480469 29.507812 9.667969 29.5 9.855469 L 31.960938 9.851562 C 34.472656 9.847656 36.527344 11.792969 36.527344 14.277344 L 36.527344 15.015625 C 37.769531 15.824219 38.589844 17.214844 38.589844 18.785156 L 38.589844 20.410156 L 35.6875 20.410156 L 35.6875 19.324219 C 35.6875 18.15625 34.71875 17.203125 33.539062 17.203125 L 6.847656 17.203125 L 6.847656 14.839844 C 6.847656 14.527344 7.105469 14.269531 7.425781 14.269531 L 12.289062 14.269531 C 11.96875 13.777344 11.699219 13.25 11.476562 12.695312 L 4.792969 12.695312 C 3.964844 12.695312 3.289062 13.367188 3.289062 14.1875 L 3.289062 41.308594 C 3.289062 42.132812 3.96875 42.800781 4.792969 42.800781 L 34.152344 42.800781 C 34.984375 42.800781 35.660156 42.128906 35.660156 41.308594 L 35.660156 39.601562 L 38.636719 39.601562 L 38.636719 42.421875 L 38.628906 42.421875 C 38.617188 44.371094 36.515625 45.945312 34.4375 45.945312 L 4.136719 45.945312 C 1.863281 45.941406 0 44.101562 0 41.851562 L 0 13.957031 C 0 11.703125 1.867188 9.859375 4.148438 9.859375 Z M 28.859375 12.691406 C 28.636719 13.246094 28.363281 13.773438 28.042969 14.265625 L 34.011719 14.265625 C 34.179688 14.265625 34.339844 14.273438 34.503906 14.292969 L 34.503906 14.183594 C 34.503906 13.363281 33.824219 12.691406 32.996094 12.691406 Z M 29.332031 25.011719 L 38.628906 25.011719 L 38.628906 34.886719 L 29.332031 34.886719 C 26.585938 34.886719 24.335938 32.664062 24.335938 29.949219 C 24.335938 27.230469 26.585938 25.011719 29.332031 25.011719 Z M 31.617188 28.3125 C 32.558594 28.3125 33.320312 29.070312 33.320312 30 C 33.320312 30.929688 32.558594 31.683594 31.617188 31.683594 C 30.675781 31.683594 29.914062 30.929688 29.914062 30 C 29.914062 29.070312 30.675781 28.3125 31.617188 28.3125 Z M 31.617188 28.3125 "/>
</g>
</svg>
