<?xml version="1.0" encoding="UTF-8"?>
<svg xmlns="http://www.w3.org/2000/svg" xmlns:xlink="http://www.w3.org/1999/xlink" width="46px" height="46px" viewBox="0 0 46 35" version="1.1">
<g id="surface1">
<path style=" stroke:none;fill-rule:evenodd;fill:rgb(0%,0%,0%);fill-opacity:1;" d="M 23 0.0234375 L 24.191406 2.859375 L 27.328125 3.085938 L 24.929688 5.066406 L 25.679688 8.039062 L 23.011719 6.429688 L 20.332031 8.050781 L 21.078125 5.078125 L 18.675781 3.085938 L 21.808594 2.859375 Z M 20.566406 16.941406 C 25.585938 15.632812 30.742188 18.535156 32.089844 23.425781 C 33.433594 28.320312 30.453125 33.347656 25.4375 34.660156 C 20.417969 35.96875 15.257812 33.066406 13.914062 28.175781 C 12.570312 23.28125 15.546875 18.253906 20.566406 16.941406 Z M 10.210938 21.855469 C 10.035156 22.371094 9.464844 22.644531 8.941406 22.472656 C 8.414062 22.300781 8.128906 21.746094 8.308594 21.234375 C 10.429688 15.089844 16.335938 10.949219 22.988281 10.945312 C 29.640625 10.941406 35.550781 15.070312 37.6875 21.210938 C 37.839844 21.71875 37.558594 22.25 37.042969 22.421875 C 36.53125 22.589844 35.972656 22.335938 35.78125 21.84375 C 33.925781 16.5 28.785156 12.902344 22.996094 12.902344 C 17.210938 12.902344 12.066406 16.5 10.210938 21.84375 Z M 20.589844 21.449219 C 21.246094 21.449219 21.785156 22.199219 21.785156 23.132812 C 21.785156 24.0625 21.257812 24.8125 20.589844 24.8125 C 19.917969 24.8125 19.398438 24.058594 19.398438 23.132812 C 19.398438 22.203125 19.929688 21.449219 20.589844 21.449219 Z M 17.921875 27.199219 C 18.308594 27.683594 18.765625 28.109375 19.277344 28.460938 C 20.402344 29.210938 21.738281 29.605469 23.101562 29.582031 C 24.433594 29.578125 25.730469 29.148438 26.796875 28.367188 C 27.238281 28.039062 27.625 27.640625 27.945312 27.195312 C 27.957031 27.183594 27.976562 27.183594 27.988281 27.195312 L 28.363281 27.5625 C 28.375 27.574219 28.375 27.59375 28.363281 27.605469 C 27.828125 28.503906 27.089844 29.273438 26.203125 29.851562 C 25.292969 30.449219 24.226562 30.78125 23.132812 30.804688 C 22.015625 30.820312 20.921875 30.535156 19.964844 29.976562 C 18.964844 29.382812 18.113281 28.574219 17.480469 27.613281 C 17.46875 27.601562 17.46875 27.582031 17.480469 27.570312 L 17.855469 27.203125 C 17.871094 27.191406 17.890625 27.191406 17.90625 27.203125 Z M 25.410156 21.449219 C 26.070312 21.449219 26.601562 22.199219 26.601562 23.132812 C 26.601562 24.0625 26.070312 24.8125 25.410156 24.8125 C 24.75 24.8125 24.214844 24.058594 24.214844 23.132812 C 24.214844 22.203125 24.75 21.449219 25.410156 21.449219 Z M 46 12.898438 L 44.074219 15.316406 L 45.441406 18.082031 L 42.484375 17.042969 L 40.210938 19.164062 L 40.308594 16.101562 L 37.542969 14.640625 L 40.5625 13.789062 L 41.117188 10.769531 L 42.886719 13.300781 L 46 12.890625 Z M 36.230469 3.371094 L 35.804688 6.40625 L 38.40625 8.132812 L 35.3125 8.675781 L 34.441406 11.617188 L 32.941406 8.917969 L 29.796875 9.011719 L 31.972656 6.800781 L 30.910156 3.914062 L 33.738281 5.246094 L 36.226562 3.371094 Z M 0 12.898438 L 3.113281 13.308594 L 4.867188 10.777344 L 5.429688 13.792969 L 8.445312 14.648438 L 5.675781 16.109375 L 5.773438 19.171875 L 3.519531 17.039062 L 0.558594 18.082031 L 1.925781 15.320312 Z M 9.769531 3.371094 L 12.257812 5.246094 L 15.085938 3.914062 L 14.027344 6.796875 L 16.203125 9.011719 L 13.058594 8.917969 L 11.558594 11.617188 L 10.679688 8.675781 L 7.585938 8.132812 L 10.183594 6.40625 Z M 9.769531 3.371094 "/>
</g>
</svg>
