<?xml version="1.0" encoding="UTF-8"?>
<svg xmlns="http://www.w3.org/2000/svg" xmlns:xlink="http://www.w3.org/1999/xlink" width="52px" height="46px" viewBox="0 0 51 46" version="1.1">
<g id="surface1">
<path style=" stroke:none;fill-rule:evenodd;fill:rgb(0%,0%,0%);fill-opacity:1;" d="M 1.285156 23.871094 L 8.839844 23.871094 C 9.550781 23.871094 10.125 24.457031 10.125 25.179688 L 10.125 40.894531 C 10.125 41.617188 9.550781 42.203125 8.839844 42.203125 L 1.285156 42.203125 C 0.578125 42.203125 0.00390625 41.617188 0 40.894531 L 0 25.179688 C 0.00390625 24.457031 0.578125 23.871094 1.285156 23.871094 Z M 11.796875 40.667969 L 11.796875 25.363281 L 19.828125 25.363281 C 22.699219 25.886719 25.570312 27.472656 28.4375 29.3125 L 33.703125 29.3125 C 36.078125 29.453125 37.328125 31.914062 35.015625 33.535156 C 33.171875 34.914062 30.738281 34.832031 28.242188 34.609375 C 26.519531 34.519531 26.445312 36.871094 28.242188 36.882812 C 28.867188 36.933594 29.542969 36.785156 30.136719 36.78125 C 33.25 36.78125 35.8125 36.171875 37.382812 33.671875 L 38.183594 31.765625 L 46.007812 27.816406 C 49.925781 26.507812 52.707031 30.675781 49.820312 33.574219 C 44.363281 37.628906 38.523438 41.125 32.390625 44.011719 C 28.074219 46.6875 23.753906 46.59375 19.4375 44.011719 L 11.800781 40.667969 Z M 25.734375 3.246094 C 25.683594 3.207031 25.628906 3.175781 25.570312 3.160156 C 25.527344 3.148438 25.480469 3.148438 25.4375 3.160156 C 25.320312 3.171875 25.210938 3.226562 25.132812 3.320312 L 24.085938 4.585938 C 23.890625 4.824219 23.5625 4.886719 23.296875 4.742188 C 23.15625 4.667969 23.003906 4.59375 22.855469 4.53125 C 22.707031 4.46875 22.527344 4.398438 22.371094 4.34375 C 22.210938 4.289062 22.050781 4.242188 21.863281 4.1875 C 21.675781 4.132812 21.519531 4.09375 21.359375 4.054688 C 21.082031 3.984375 20.886719 3.734375 20.875 3.445312 L 20.71875 1.707031 C 20.710938 1.644531 20.695312 1.582031 20.667969 1.527344 C 20.644531 1.480469 20.609375 1.441406 20.574219 1.40625 C 20.535156 1.371094 20.492188 1.34375 20.441406 1.332031 C 20.382812 1.320312 20.328125 1.320312 20.269531 1.332031 L 18.066406 1.554688 C 18.007812 1.5625 17.949219 1.578125 17.898438 1.605469 C 17.84375 1.632812 17.792969 1.675781 17.753906 1.722656 C 17.722656 1.765625 17.699219 1.8125 17.679688 1.863281 C 17.671875 1.90625 17.671875 1.953125 17.679688 2 L 17.835938 3.644531 C 17.863281 3.957031 17.667969 4.25 17.371094 4.332031 C 17.238281 4.378906 17.085938 4.433594 16.917969 4.507812 C 16.746094 4.578125 16.601562 4.648438 16.46875 4.722656 L 16.445312 4.722656 C 16.304688 4.796875 16.152344 4.878906 16.027344 4.960938 L 15.988281 4.960938 C 15.847656 5.046875 15.710938 5.136719 15.574219 5.222656 C 15.339844 5.378906 15.035156 5.367188 14.816406 5.191406 L 13.382812 4.058594 C 13.335938 4.023438 13.289062 3.992188 13.234375 3.972656 C 13.195312 3.964844 13.152344 3.964844 13.109375 3.972656 C 13.050781 3.980469 12.996094 4 12.941406 4.027344 L 12.914062 4.027344 C 12.878906 4.054688 12.84375 4.089844 12.8125 4.125 L 11.421875 5.84375 C 11.378906 5.894531 11.347656 5.957031 11.328125 6.019531 C 11.316406 6.0625 11.316406 6.109375 11.328125 6.152344 L 11.328125 6.183594 C 11.332031 6.234375 11.34375 6.28125 11.367188 6.328125 L 11.367188 6.347656 C 11.394531 6.390625 11.429688 6.425781 11.46875 6.457031 L 12.710938 7.527344 C 12.949219 7.722656 13.011719 8.0625 12.867188 8.332031 C 12.792969 8.46875 12.722656 8.613281 12.664062 8.753906 C 12.59375 8.917969 12.53125 9.082031 12.480469 9.25 C 12.429688 9.40625 12.375 9.574219 12.324219 9.765625 C 12.269531 9.957031 12.226562 10.121094 12.191406 10.28125 C 12.136719 10.566406 11.90625 10.777344 11.621094 10.804688 L 9.90625 10.964844 C 9.847656 10.972656 9.789062 10.988281 9.738281 11.015625 C 9.691406 11.042969 9.648438 11.078125 9.613281 11.117188 C 9.578125 11.15625 9.554688 11.203125 9.542969 11.253906 C 9.53125 11.308594 9.53125 11.367188 9.542969 11.421875 L 9.757812 13.664062 C 9.761719 13.726562 9.78125 13.785156 9.808594 13.839844 C 9.835938 13.898438 9.875 13.945312 9.917969 13.984375 C 9.960938 14.015625 10.007812 14.042969 10.054688 14.0625 C 10.105469 14.070312 10.160156 14.070312 10.210938 14.0625 L 11.824219 13.90625 C 12.125 13.886719 12.394531 14.082031 12.476562 14.378906 C 12.523438 14.511719 12.578125 14.667969 12.648438 14.839844 C 12.722656 15.007812 12.789062 15.15625 12.863281 15.300781 L 12.890625 15.359375 C 12.957031 15.488281 13.03125 15.632812 13.117188 15.78125 L 13.394531 16.246094 C 13.539062 16.480469 13.523438 16.789062 13.351562 17.003906 L 12.203125 18.445312 C 12.171875 18.488281 12.148438 18.535156 12.128906 18.582031 C 12.121094 18.621094 12.121094 18.664062 12.128906 18.703125 C 12.132812 18.765625 12.148438 18.824219 12.175781 18.882812 C 12.203125 18.933594 12.242188 18.976562 12.285156 19.011719 C 12.859375 19.5 13.445312 19.976562 14.015625 20.464844 C 14.054688 20.492188 14.097656 20.515625 14.140625 20.527344 C 14.191406 20.539062 14.246094 20.539062 14.296875 20.527344 C 14.359375 20.523438 14.421875 20.503906 14.480469 20.476562 L 14.5 20.476562 C 14.539062 20.453125 14.578125 20.421875 14.613281 20.390625 L 15.652344 19.121094 C 15.84375 18.882812 16.175781 18.816406 16.445312 18.960938 C 16.585938 19.039062 16.734375 19.109375 16.882812 19.171875 C 17.046875 19.246094 17.207031 19.304688 17.371094 19.359375 C 17.53125 19.414062 17.683594 19.464844 17.875 19.519531 C 18.066406 19.574219 18.21875 19.617188 18.382812 19.65625 C 18.664062 19.71875 18.867188 19.96875 18.875 20.261719 L 19.035156 21.980469 C 19.039062 22.042969 19.058594 22.101562 19.085938 22.15625 C 19.109375 22.203125 19.144531 22.246094 19.183594 22.28125 C 19.222656 22.3125 19.269531 22.335938 19.316406 22.355469 C 19.371094 22.363281 19.429688 22.363281 19.484375 22.355469 L 21.6875 22.132812 C 21.746094 22.128906 21.808594 22.109375 21.863281 22.082031 C 21.914062 22.058594 21.957031 22.023438 21.996094 21.980469 C 22.035156 21.933594 22.0625 21.882812 22.085938 21.824219 C 22.097656 21.777344 22.097656 21.722656 22.085938 21.671875 L 21.933594 20.027344 C 21.902344 19.730469 22.074219 19.453125 22.351562 19.351562 C 22.511719 19.296875 22.671875 19.230469 22.832031 19.164062 L 22.882812 19.164062 C 23.015625 19.105469 23.148438 19.039062 23.296875 18.960938 L 23.320312 18.960938 C 23.480469 18.882812 23.632812 18.796875 23.769531 18.710938 L 24.230469 18.429688 C 24.460938 18.277344 24.761719 18.296875 24.972656 18.476562 L 26.375 19.640625 C 26.417969 19.671875 26.464844 19.699219 26.511719 19.71875 C 26.554688 19.726562 26.601562 19.726562 26.644531 19.71875 C 26.703125 19.714844 26.761719 19.699219 26.816406 19.671875 C 26.863281 19.640625 26.90625 19.601562 26.941406 19.558594 C 27.417969 18.972656 27.886719 18.375 28.367188 17.796875 C 28.394531 17.757812 28.417969 17.71875 28.429688 17.671875 C 28.4375 17.621094 28.4375 17.566406 28.429688 17.511719 C 28.421875 17.449219 28.40625 17.386719 28.378906 17.328125 C 28.351562 17.277344 28.320312 17.230469 28.277344 17.191406 L 27.03125 16.160156 C 26.789062 15.964844 26.722656 15.625 26.871094 15.351562 C 26.945312 15.203125 27.015625 15.054688 27.078125 14.902344 C 27.148438 14.730469 27.210938 14.5625 27.257812 14.410156 C 27.308594 14.261719 27.359375 14.082031 27.414062 13.890625 C 27.46875 13.703125 27.507812 13.546875 27.546875 13.378906 C 27.609375 13.085938 27.863281 12.878906 28.15625 12.875 L 29.882812 12.6875 C 29.941406 12.683594 30.003906 12.664062 30.058594 12.636719 C 30.101562 12.609375 30.140625 12.578125 30.175781 12.539062 C 30.207031 12.5 30.230469 12.453125 30.25 12.40625 C 30.257812 12.351562 30.257812 12.296875 30.25 12.246094 L 30.03125 10.007812 C 30.023438 9.945312 30.007812 9.886719 29.984375 9.832031 L 29.984375 9.808594 C 29.953125 9.761719 29.917969 9.722656 29.878906 9.6875 C 29.835938 9.65625 29.792969 9.628906 29.742188 9.613281 C 29.695312 9.605469 29.648438 9.605469 29.605469 9.613281 L 27.972656 9.730469 C 27.683594 9.761719 27.410156 9.585938 27.308594 9.308594 C 27.253906 9.152344 27.199219 8.988281 27.121094 8.820312 C 27.046875 8.648438 26.976562 8.472656 26.90625 8.332031 L 26.90625 8.304688 C 26.835938 8.160156 26.757812 8.019531 26.675781 7.882812 C 26.589844 7.738281 26.496094 7.59375 26.402344 7.457031 C 26.242188 7.21875 26.253906 6.898438 26.4375 6.675781 L 27.574219 5.246094 C 27.609375 5.203125 27.640625 5.152344 27.660156 5.097656 C 27.667969 5.058594 27.667969 5.015625 27.660156 4.976562 C 27.648438 4.914062 27.632812 4.851562 27.605469 4.796875 L 27.605469 4.769531 C 27.578125 4.730469 27.550781 4.695312 27.515625 4.667969 L 25.960938 3.367188 C 25.878906 3.34375 25.800781 3.300781 25.734375 3.246094 Z M 42.90625 13.640625 C 42.773438 13.523438 42.601562 13.46875 42.429688 13.488281 C 42.257812 13.507812 42.101562 13.59375 41.988281 13.726562 L 41.355469 14.507812 C 41.152344 14.402344 40.941406 14.3125 40.726562 14.238281 C 40.503906 14.167969 40.3125 14.105469 40.070312 14.046875 L 39.972656 12.957031 C 39.957031 12.785156 39.875 12.625 39.742188 12.511719 C 39.613281 12.398438 39.441406 12.347656 39.269531 12.371094 L 37.917969 12.507812 C 37.757812 12.527344 37.609375 12.609375 37.503906 12.734375 C 37.390625 12.867188 37.335938 13.042969 37.351562 13.222656 L 37.445312 14.222656 C 37.226562 14.292969 37.011719 14.386719 36.808594 14.496094 C 36.609375 14.597656 36.414062 14.714844 36.230469 14.84375 L 35.375 14.140625 C 35.25 14.023438 35.078125 13.964844 34.910156 13.984375 C 34.738281 14.003906 34.578125 14.09375 34.46875 14.230469 L 33.640625 15.28125 C 33.527344 15.417969 33.472656 15.59375 33.488281 15.769531 C 33.503906 15.945312 33.589844 16.105469 33.726562 16.214844 L 34.449219 16.863281 C 34.34375 17.066406 34.257812 17.28125 34.1875 17.5 C 34.113281 17.726562 34.050781 17.921875 33.996094 18.167969 L 32.925781 18.269531 C 32.753906 18.285156 32.597656 18.367188 32.484375 18.5 C 32.382812 18.640625 32.339844 18.816406 32.375 18.988281 L 32.507812 20.359375 C 32.523438 20.53125 32.605469 20.691406 32.734375 20.804688 C 32.863281 20.921875 33.035156 20.976562 33.207031 20.957031 L 34.191406 20.863281 C 34.257812 21.082031 34.34375 21.296875 34.449219 21.503906 C 34.550781 21.714844 34.664062 21.917969 34.789062 22.113281 L 34.101562 22.957031 C 33.984375 23.085938 33.929688 23.257812 33.949219 23.429688 C 33.972656 23.597656 34.058594 23.746094 34.1875 23.851562 L 35.238281 24.769531 C 35.371094 24.882812 35.542969 24.933594 35.714844 24.910156 C 35.886719 24.890625 36.046875 24.8125 36.164062 24.679688 L 36.800781 23.886719 C 37.003906 23.996094 37.210938 24.085938 37.429688 24.15625 C 37.644531 24.234375 37.863281 24.296875 38.085938 24.347656 L 38.183594 25.441406 C 38.203125 25.613281 38.28125 25.773438 38.410156 25.886719 C 38.542969 26 38.71875 26.050781 38.890625 26.027344 L 40.238281 25.894531 C 40.40625 25.875 40.5625 25.792969 40.671875 25.660156 C 40.789062 25.527344 40.84375 25.351562 40.824219 25.175781 L 40.726562 24.175781 C 40.949219 24.105469 41.160156 24.011719 41.363281 23.898438 C 41.566406 23.796875 41.765625 23.683594 41.957031 23.558594 L 42.785156 24.257812 C 42.917969 24.375 43.089844 24.429688 43.265625 24.410156 C 43.4375 24.394531 43.59375 24.308594 43.703125 24.171875 L 44.566406 23.105469 C 44.675781 22.96875 44.726562 22.792969 44.707031 22.621094 C 44.691406 22.445312 44.609375 22.28125 44.480469 22.164062 L 43.699219 21.523438 C 43.816406 21.320312 43.914062 21.105469 43.992188 20.882812 C 44.066406 20.667969 44.128906 20.445312 44.179688 20.21875 L 45.257812 20.117188 C 45.417969 20.097656 45.566406 20.015625 45.671875 19.886719 C 45.78125 19.753906 45.835938 19.574219 45.8125 19.402344 L 45.679688 18.027344 C 45.65625 17.863281 45.574219 17.714844 45.449219 17.605469 C 45.320312 17.488281 45.148438 17.429688 44.972656 17.449219 L 43.988281 17.546875 C 43.917969 17.324219 43.824219 17.109375 43.71875 16.898438 C 43.625 16.691406 43.511719 16.496094 43.378906 16.308594 L 44.074219 15.4375 C 44.1875 15.308594 44.238281 15.136719 44.222656 14.964844 C 44.203125 14.789062 44.117188 14.628906 43.984375 14.519531 L 42.949219 13.652344 L 42.914062 13.652344 Z M 38.804688 16.523438 C 39.160156 16.492188 39.511719 16.527344 39.851562 16.628906 C 40.175781 16.734375 40.480469 16.902344 40.746094 17.121094 C 41.007812 17.339844 41.226562 17.613281 41.386719 17.917969 C 41.558594 18.230469 41.660156 18.578125 41.6875 18.9375 C 41.71875 19.292969 41.683594 19.65625 41.582031 20 C 41.390625 20.671875 40.941406 21.234375 40.335938 21.566406 C 40.027344 21.738281 39.6875 21.839844 39.335938 21.867188 C 38.984375 21.902344 38.628906 21.867188 38.292969 21.761719 C 37.964844 21.660156 37.660156 21.492188 37.394531 21.277344 C 37.132812 21.050781 36.917969 20.78125 36.757812 20.472656 C 36.578125 20.160156 36.46875 19.808594 36.4375 19.449219 C 36.320312 18.367188 36.863281 17.328125 37.804688 16.820312 C 38.113281 16.648438 38.457031 16.542969 38.804688 16.515625 Z M 25.964844 1.917969 C 26.109375 1.964844 26.25 2.027344 26.378906 2.105469 C 26.472656 2.128906 26.554688 2.171875 26.628906 2.234375 L 28.300781 3.648438 C 28.457031 3.777344 28.589844 3.933594 28.691406 4.109375 L 28.726562 4.164062 C 28.832031 4.363281 28.898438 4.582031 28.925781 4.804688 C 28.953125 5.042969 28.929688 5.28125 28.851562 5.507812 C 28.789062 5.707031 28.6875 5.890625 28.558594 6.050781 L 27.703125 7.132812 L 27.757812 7.222656 C 27.867188 7.40625 27.964844 7.601562 28.050781 7.796875 C 28.152344 7.992188 28.234375 8.175781 28.300781 8.339844 L 28.335938 8.425781 L 29.457031 8.316406 C 29.671875 8.289062 29.894531 8.3125 30.101562 8.375 L 30.136719 8.375 C 30.328125 8.441406 30.507812 8.539062 30.667969 8.667969 L 30.726562 8.71875 C 30.875 8.851562 31 9.007812 31.09375 9.183594 L 31.128906 9.238281 C 31.222656 9.429688 31.285156 9.636719 31.304688 9.851562 C 31.304688 10.414062 31.449219 11.515625 31.523438 12.105469 C 31.546875 12.320312 31.53125 12.535156 31.476562 12.742188 L 31.476562 12.78125 C 31.414062 13 31.308594 13.203125 31.164062 13.378906 C 31.027344 13.550781 30.859375 13.691406 30.671875 13.800781 C 30.472656 13.902344 30.261719 13.96875 30.039062 13.992188 L 28.71875 14.113281 L 28.6875 14.234375 C 28.640625 14.402344 28.582031 14.59375 28.507812 14.808594 C 28.433594 15.023438 28.371094 15.230469 28.300781 15.386719 L 28.269531 15.460938 L 29.175781 16.207031 C 29.351562 16.359375 29.492188 16.542969 29.59375 16.753906 C 29.667969 16.9375 29.714844 17.132812 29.726562 17.335938 L 29.726562 17.355469 C 29.753906 17.582031 29.734375 17.8125 29.671875 18.03125 C 29.613281 18.238281 29.519531 18.429688 29.394531 18.601562 L 27.945312 20.386719 C 27.804688 20.558594 27.636719 20.703125 27.441406 20.808594 C 27.246094 20.917969 27.03125 20.988281 26.808594 21.011719 C 26.585938 21.035156 26.363281 21.019531 26.148438 20.957031 L 26.113281 20.957031 C 25.925781 20.890625 25.75 20.792969 25.589844 20.667969 L 24.515625 19.777344 L 24.410156 19.839844 C 24.226562 19.949219 24.046875 20.046875 23.878906 20.132812 C 23.707031 20.214844 23.5625 20.292969 23.390625 20.367188 L 23.242188 20.417969 L 23.359375 21.558594 C 23.382812 21.792969 23.359375 22.03125 23.289062 22.257812 C 23.21875 22.464844 23.109375 22.65625 22.972656 22.828125 L 22.949219 22.851562 C 22.8125 23.007812 22.65625 23.136719 22.476562 23.238281 L 22.4375 23.238281 C 22.25 23.332031 22.046875 23.394531 21.839844 23.417969 C 21.28125 23.417969 20.203125 23.566406 19.621094 23.640625 C 19.398438 23.667969 19.175781 23.648438 18.957031 23.585938 C 18.746094 23.519531 18.546875 23.414062 18.375 23.265625 L 18.351562 23.265625 C 18.195312 23.121094 18.058594 22.949219 17.957031 22.757812 C 17.855469 22.558594 17.789062 22.339844 17.769531 22.117188 L 17.648438 20.777344 L 17.53125 20.746094 L 16.964844 20.5625 C 16.765625 20.496094 16.550781 20.421875 16.398438 20.347656 L 16.320312 20.3125 L 15.570312 21.238281 C 15.433594 21.394531 15.269531 21.527344 15.085938 21.621094 L 15.039062 21.652344 C 14.859375 21.738281 14.664062 21.796875 14.464844 21.820312 L 14.441406 21.820312 C 14.21875 21.847656 13.992188 21.832031 13.773438 21.765625 C 13.574219 21.707031 13.390625 21.609375 13.222656 21.480469 L 11.46875 20.003906 C 11.296875 19.863281 11.15625 19.691406 11.050781 19.492188 C 10.945312 19.296875 10.878906 19.078125 10.851562 18.855469 C 10.828125 18.628906 10.851562 18.398438 10.921875 18.179688 C 10.984375 17.984375 11.082031 17.804688 11.207031 17.644531 L 12.082031 16.550781 L 12.035156 16.445312 C 11.945312 16.289062 11.859375 16.117188 11.769531 15.941406 C 11.667969 15.746094 11.578125 15.5625 11.5 15.371094 L 11.464844 15.273438 L 10.351562 15.378906 C 10.121094 15.40625 9.890625 15.382812 9.671875 15.3125 C 9.476562 15.246094 9.296875 15.148438 9.140625 15.015625 L 9.078125 14.96875 C 8.90625 14.820312 8.765625 14.640625 8.660156 14.441406 C 8.566406 14.25 8.507812 14.046875 8.484375 13.832031 C 8.484375 13.261719 8.339844 12.179688 8.261719 11.582031 C 8.230469 11.347656 8.242188 11.113281 8.300781 10.882812 C 8.367188 10.667969 8.472656 10.464844 8.617188 10.289062 C 8.757812 10.121094 8.925781 9.976562 9.113281 9.867188 C 9.3125 9.761719 9.523438 9.699219 9.746094 9.675781 L 11.0625 9.554688 L 11.09375 9.429688 C 11.144531 9.265625 11.203125 9.074219 11.273438 8.859375 C 11.34375 8.648438 11.414062 8.4375 11.484375 8.277344 L 11.515625 8.199219 L 10.667969 7.464844 C 10.5 7.332031 10.359375 7.175781 10.25 6.992188 L 10.226562 6.953125 C 10.132812 6.765625 10.074219 6.5625 10.050781 6.351562 L 10.050781 6.316406 C 10.027344 6.089844 10.050781 5.859375 10.117188 5.636719 C 10.1875 5.421875 10.296875 5.21875 10.441406 5.042969 L 11.832031 3.316406 C 11.960938 3.15625 12.113281 3.023438 12.289062 2.921875 L 12.339844 2.886719 C 12.535156 2.777344 12.75 2.710938 12.96875 2.683594 C 13.199219 2.65625 13.429688 2.679688 13.644531 2.757812 C 13.839844 2.824219 14.023438 2.925781 14.183594 3.058594 L 15.25 3.929688 L 15.355469 3.847656 C 15.527344 3.746094 15.699219 3.652344 15.875 3.5625 C 16.050781 3.476562 16.242188 3.378906 16.410156 3.300781 L 16.511719 3.265625 L 16.398438 2.128906 C 16.371094 1.90625 16.394531 1.683594 16.457031 1.46875 L 16.457031 1.433594 C 16.519531 1.238281 16.617188 1.054688 16.742188 0.894531 L 16.804688 0.859375 C 16.949219 0.6875 17.121094 0.546875 17.316406 0.4375 C 17.503906 0.335938 17.707031 0.273438 17.917969 0.246094 C 18.472656 0.246094 19.550781 0.105469 20.132812 0.0273438 C 20.355469 0 20.582031 0.0195312 20.796875 0.0820312 C 21.011719 0.148438 21.210938 0.253906 21.382812 0.398438 C 21.550781 0.539062 21.691406 0.710938 21.796875 0.902344 C 21.902344 1.109375 21.972656 1.332031 21.996094 1.5625 L 22.113281 2.90625 L 22.234375 2.9375 C 22.394531 2.984375 22.585938 3.042969 22.796875 3.117188 L 23.367188 3.332031 L 23.449219 3.371094 L 24.167969 2.488281 C 24.308594 2.3125 24.480469 2.171875 24.675781 2.0625 C 24.871094 1.953125 25.089844 1.878906 25.316406 1.851562 C 25.542969 1.824219 25.769531 1.847656 25.984375 1.917969 Z M 19.386719 6.820312 C 19.707031 6.792969 20.027344 6.792969 20.34375 6.820312 C 20.675781 6.855469 21.003906 6.921875 21.324219 7.019531 C 21.628906 7.117188 21.921875 7.242188 22.203125 7.394531 L 22.242188 7.417969 C 22.503906 7.566406 22.753906 7.734375 22.988281 7.925781 C 23.476562 8.347656 23.882812 8.855469 24.1875 9.425781 C 24.347656 9.71875 24.476562 10.03125 24.570312 10.351562 C 24.667969 10.675781 24.726562 11.011719 24.753906 11.347656 C 24.78125 11.671875 24.78125 11.996094 24.753906 12.320312 C 24.726562 12.660156 24.660156 12.992188 24.5625 13.316406 L 24.5625 13.359375 C 24.46875 13.652344 24.347656 13.933594 24.207031 14.203125 C 24.054688 14.488281 23.882812 14.753906 23.6875 15.007812 L 23.644531 15.054688 C 23.242188 15.535156 22.753906 15.9375 22.203125 16.242188 C 21.914062 16.402344 21.609375 16.53125 21.292969 16.628906 C 20.972656 16.722656 20.644531 16.785156 20.316406 16.816406 C 19.992188 16.84375 19.664062 16.84375 19.339844 16.816406 C 19.007812 16.78125 18.679688 16.714844 18.359375 16.617188 C 18.058594 16.519531 17.765625 16.394531 17.484375 16.242188 C 17.207031 16.085938 16.945312 15.910156 16.695312 15.707031 C 16.457031 15.503906 16.234375 15.273438 16.03125 15.023438 C 15.832031 14.769531 15.648438 14.5 15.492188 14.214844 C 15.335938 13.917969 15.210938 13.605469 15.117188 13.285156 C 15.019531 12.960938 14.957031 12.625 14.933594 12.289062 C 14.902344 11.964844 14.902344 11.640625 14.933594 11.316406 C 14.960938 10.976562 15.027344 10.644531 15.125 10.320312 C 15.21875 10.007812 15.34375 9.707031 15.492188 9.421875 L 15.515625 9.386719 C 15.65625 9.113281 15.824219 8.859375 16.015625 8.621094 L 16.050781 8.578125 C 16.246094 8.34375 16.460938 8.125 16.695312 7.933594 C 16.945312 7.726562 17.214844 7.542969 17.492188 7.386719 C 17.78125 7.226562 18.085938 7.09375 18.402344 7 C 18.722656 6.90625 19.050781 6.84375 19.382812 6.8125 Z M 20.214844 8.117188 C 19.972656 8.09375 19.722656 8.09375 19.476562 8.117188 C 19.234375 8.136719 18.992188 8.183594 18.757812 8.253906 C 18.53125 8.320312 18.308594 8.414062 18.101562 8.53125 C 17.886719 8.65625 17.679688 8.796875 17.488281 8.953125 C 17.320312 9.09375 17.160156 9.25 17.015625 9.417969 C 16.875 9.597656 16.75 9.789062 16.644531 9.988281 L 16.644531 10.023438 C 16.53125 10.238281 16.441406 10.460938 16.367188 10.695312 C 16.28125 10.9375 16.222656 11.191406 16.1875 11.445312 C 16.164062 11.695312 16.164062 11.949219 16.1875 12.199219 C 16.207031 12.449219 16.253906 12.695312 16.324219 12.933594 C 16.390625 13.171875 16.484375 13.402344 16.601562 13.617188 C 16.722656 13.835938 16.859375 14.042969 17.015625 14.234375 C 17.164062 14.417969 17.328125 14.589844 17.507812 14.742188 C 17.691406 14.890625 17.886719 15.019531 18.089844 15.132812 C 18.304688 15.246094 18.527344 15.34375 18.753906 15.417969 C 18.988281 15.492188 19.230469 15.539062 19.472656 15.5625 C 19.722656 15.585938 19.976562 15.585938 20.226562 15.5625 C 20.46875 15.539062 20.710938 15.496094 20.945312 15.425781 C 21.167969 15.355469 21.378906 15.261719 21.582031 15.148438 C 21.796875 15.027344 22.003906 14.882812 22.191406 14.722656 C 22.363281 14.582031 22.519531 14.421875 22.664062 14.25 C 22.820312 14.0625 22.960938 13.859375 23.082031 13.644531 C 23.1875 13.4375 23.277344 13.222656 23.351562 13 L 23.351562 12.976562 C 23.421875 12.734375 23.472656 12.488281 23.496094 12.242188 C 23.515625 11.992188 23.515625 11.738281 23.496094 11.488281 C 23.476562 11.238281 23.429688 10.992188 23.359375 10.753906 C 23.289062 10.519531 23.199219 10.296875 23.085938 10.082031 C 22.964844 9.863281 22.828125 9.65625 22.667969 9.464844 C 22.523438 9.28125 22.359375 9.109375 22.179688 8.957031 C 22.007812 8.816406 21.820312 8.691406 21.628906 8.582031 L 21.59375 8.582031 C 21.382812 8.46875 21.160156 8.375 20.929688 8.300781 C 20.699219 8.226562 20.457031 8.175781 20.214844 8.15625 Z M 6.746094 36.28125 C 7.5625 36.277344 8.222656 36.949219 8.226562 37.78125 C 8.226562 38.613281 7.566406 39.289062 6.75 39.289062 C 5.933594 39.289062 5.269531 38.617188 5.269531 37.785156 C 5.269531 36.957031 5.929688 36.285156 6.746094 36.28125 Z M 6.746094 36.28125 "/>
</g>
</svg>
