<?xml version="1.0" encoding="UTF-8"?>
<svg xmlns="http://www.w3.org/2000/svg" xmlns:xlink="http://www.w3.org/1999/xlink" width="46px" height="46px" viewBox="0 0 46 46" version="1.1">
<g id="surface1">
<path style=" stroke:none;fill-rule:nonzero;fill:rgb(0%,0%,0%);fill-opacity:1;" d="M 32.03125 2.820312 C 30.824219 3.621094 30.1875 4.84375 30.1875 6.308594 C 30.1875 7.707031 30.84375 8.929688 32.011719 9.703125 L 32.613281 10.105469 L 32.613281 22.144531 L 32.210938 22.363281 C 31.589844 22.683594 30.941406 23.394531 30.566406 24.148438 C 30.257812 24.769531 30.234375 24.90625 30.207031 25.730469 C 30.179688 26.484375 30.207031 26.738281 30.367188 27.214844 C 30.878906 28.75 32.074219 29.757812 33.699219 30.015625 C 36.394531 30.464844 38.859375 27.960938 38.371094 25.246094 C 38.15625 24.050781 37.535156 23.117188 36.511719 22.441406 L 35.9375 22.066406 L 35.9375 10.105469 L 36.414062 9.820312 C 37.402344 9.226562 38.15625 8.128906 38.371094 6.960938 C 38.667969 5.34375 37.816406 3.503906 36.386719 2.703125 L 36.027344 2.507812 L 36.027344 5.839844 L 35.15625 6.28125 L 34.277344 6.71875 L 33.449219 6.308594 L 32.613281 5.882812 L 32.613281 4.203125 C 32.613281 3.269531 32.585938 2.515625 32.542969 2.515625 C 32.503906 2.515625 32.273438 2.648438 32.03125 2.820312 Z M 34.570312 12.238281 C 34.636719 12.300781 34.679688 12.460938 34.679688 12.597656 C 34.679688 13.054688 33.953125 13.046875 33.890625 12.585938 C 33.828125 12.210938 34.300781 11.96875 34.570312 12.238281 Z M 34.652344 14.464844 C 34.742188 14.625 34.769531 15.136719 34.75 16.414062 C 34.726562 17.914062 34.707031 18.167969 34.570312 18.300781 C 34.445312 18.417969 34.367188 18.4375 34.167969 18.363281 L 33.917969 18.28125 L 33.890625 16.351562 C 33.871094 14.589844 33.878906 14.410156 34.023438 14.304688 C 34.257812 14.140625 34.527344 14.203125 34.652344 14.464844 Z M 34.570312 19.785156 C 34.636719 19.847656 34.679688 19.972656 34.679688 20.078125 C 34.679688 20.1875 34.636719 20.3125 34.570312 20.375 C 34.507812 20.4375 34.382812 20.484375 34.277344 20.484375 C 34.167969 20.484375 34.042969 20.4375 33.980469 20.375 C 33.917969 20.3125 33.871094 20.1875 33.871094 20.078125 C 33.871094 19.972656 33.917969 19.847656 33.980469 19.785156 C 34.042969 19.71875 34.167969 19.675781 34.277344 19.675781 C 34.382812 19.675781 34.507812 19.71875 34.570312 19.785156 Z M 36.027344 25.515625 L 36.027344 26.773438 L 35.175781 27.195312 L 34.320312 27.625 L 33.46875 27.195312 L 32.613281 26.773438 L 32.613281 24.210938 L 33.449219 23.789062 L 34.277344 23.378906 L 35.15625 23.816406 L 36.027344 24.257812 Z M 36.027344 25.515625 "/>
<path style=" stroke:none;fill-rule:nonzero;fill:rgb(0%,0%,0%);fill-opacity:1;" d="M 15.183594 9.398438 C 13.691406 9.800781 12.460938 11.195312 12.21875 12.757812 C 12.175781 13.082031 12.128906 14.292969 12.128906 15.453125 L 12.128906 17.5625 L 11.832031 17.699219 C 11.4375 17.886719 11.277344 18.238281 11.410156 18.640625 C 11.609375 19.226562 12.03125 19.34375 13.082031 19.089844 C 15.230469 18.589844 18.824219 18.328125 21.542969 18.488281 C 23.636719 18.617188 24.113281 18.667969 25.992188 19.011719 L 27.3125 19.261719 L 27.5625 19.074219 C 27.871094 18.847656 28.003906 18.410156 27.871094 18.09375 C 27.808594 17.976562 27.617188 17.789062 27.449219 17.691406 L 27.132812 17.5 L 27.132812 15.15625 C 27.132812 13.476562 27.097656 12.675781 27.007812 12.351562 C 26.621094 10.890625 25.496094 9.765625 24.035156 9.378906 C 23.351562 9.191406 15.875 9.207031 15.183594 9.398438 Z M 20.375 10.53125 C 20.441406 10.59375 20.484375 10.710938 20.484375 10.789062 C 20.484375 11.078125 20.746094 11.238281 21.078125 11.175781 C 21.445312 11.105469 21.5625 11.195312 21.878906 11.742188 C 22.148438 12.238281 22.15625 12.40625 21.921875 12.621094 C 21.824219 12.710938 21.742188 12.855469 21.742188 12.9375 C 21.742188 13.019531 21.824219 13.160156 21.921875 13.25 C 22.171875 13.476562 22.148438 13.726562 21.804688 14.285156 L 21.507812 14.777344 L 21.085938 14.753906 C 20.683594 14.726562 20.664062 14.734375 20.511719 15.066406 L 20.351562 15.40625 L 19.65625 15.433594 L 18.964844 15.460938 L 18.804688 15.121094 C 18.660156 14.832031 18.597656 14.777344 18.375 14.796875 C 17.851562 14.824219 17.746094 14.753906 17.429688 14.167969 L 17.125 13.59375 L 17.367188 13.296875 C 17.601562 13.027344 17.609375 12.992188 17.476562 12.8125 C 17.117188 12.328125 17.117188 12.261719 17.476562 11.679688 C 17.808594 11.132812 17.824219 11.121094 18.148438 11.167969 C 18.527344 11.210938 18.777344 11.105469 18.777344 10.898438 C 18.777344 10.566406 19.046875 10.421875 19.675781 10.421875 C 20.015625 10.421875 20.3125 10.464844 20.375 10.53125 Z M 20.375 10.53125 "/>
<path style=" stroke:none;fill-rule:nonzero;fill:rgb(0%,0%,0%);fill-opacity:1;" d="M 19.351562 12.21875 C 18.554688 12.542969 18.796875 13.746094 19.65625 13.746094 C 20.476562 13.746094 20.753906 12.632812 20.027344 12.261719 C 19.746094 12.109375 19.632812 12.101562 19.351562 12.21875 Z M 19.351562 12.21875 "/>
<path style=" stroke:none;fill-rule:nonzero;fill:rgb(0%,0%,0%);fill-opacity:1;" d="M 15.121094 29.757812 L 13.835938 30.125 L 13.835938 36.746094 L 11.230469 36.746094 L 11.230469 33.828125 C 11.230469 32.21875 11.203125 30.90625 11.167969 30.90625 C 10.941406 30.90625 7.160156 32.046875 6.828125 32.210938 C 5.910156 32.675781 5.203125 33.710938 5.078125 34.769531 C 5.011719 35.289062 5.023438 35.300781 5.5 36.046875 C 6.496094 37.601562 7.863281 39.179688 9.300781 40.429688 C 11.507812 42.34375 13.601562 43.546875 16.351562 44.472656 C 18.847656 45.316406 20.835938 45.605469 23.65625 45.523438 C 26.074219 45.460938 27.691406 45.164062 29.828125 44.410156 C 30.886719 44.03125 32.9375 43.089844 33.582031 42.683594 L 33.871094 42.496094 L 33.871094 38.785156 C 33.871094 34.929688 33.828125 34.300781 33.492188 33.65625 C 32.917969 32.542969 32.425781 32.226562 30 31.5 L 28.078125 30.933594 L 28.050781 33.835938 L 28.03125 36.746094 L 25.515625 36.746094 L 25.496094 33.457031 L 25.472656 30.160156 L 24.167969 29.773438 C 23.449219 29.558594 22.800781 29.386719 22.730469 29.40625 C 22.621094 29.421875 22.585938 29.628906 22.542969 30.414062 C 22.507812 31.195312 22.453125 31.480469 22.289062 31.785156 C 22.003906 32.34375 21.554688 32.8125 21.003906 33.117188 C 20.574219 33.351562 20.449219 33.375 19.675781 33.375 C 18.6875 33.375 18.230469 33.207031 17.609375 32.59375 C 17.015625 32.03125 16.773438 31.398438 16.730469 30.304688 C 16.691406 29.523438 16.667969 29.378906 16.539062 29.386719 C 16.460938 29.386719 15.820312 29.558594 15.121094 29.757812 Z M 13.1875 38.765625 C 13.476562 39.109375 13.457031 39.566406 13.125 39.898438 C 12.722656 40.304688 12.066406 40.203125 11.804688 39.703125 C 11.652344 39.398438 11.652344 39.191406 11.804688 38.910156 C 12.085938 38.40625 12.804688 38.335938 13.1875 38.765625 Z M 27.320312 38.714844 C 27.511719 38.910156 27.582031 39.0625 27.582031 39.304688 C 27.582031 39.738281 27.1875 40.160156 26.78125 40.160156 C 26.359375 40.160156 25.929688 39.730469 25.929688 39.304688 C 25.929688 39.039062 25.992188 38.910156 26.214844 38.714844 C 26.601562 38.363281 26.972656 38.371094 27.320312 38.714844 Z M 27.320312 38.714844 "/>
<path style=" stroke:none;fill-rule:nonzero;fill:rgb(0%,0%,0%);fill-opacity:1;" d="M 39.109375 43.296875 C 38.28125 43.816406 38.390625 45.109375 39.28125 45.441406 C 40.207031 45.792969 41.183594 44.914062 40.886719 44.003906 C 40.636719 43.25 39.746094 42.898438 39.109375 43.296875 Z M 39.109375 43.296875 "/>
</g>
</svg>
